<svg t="1746626775045" class="icon" viewBox="0 0 1026 1024" version="1.1" xmlns="http://www.w3.org/2000/svg" p-id="1454" width="200" height="200"><path d="M225.571962 0.228914c-21.13701-2.536441-43.542241 16.275498-48.720809 42.90813L0.991229 964.710687c-5.178567 26.632633 10.568505 53.899376 32.445311 56.435817s43.542241-16.169813 48.720808-42.274021L258.017272 56.876101c5.178567-26.526948-11.09693-52.842525-32.44531-56.435817zM525.294766 43.982525c-21.13701 0-37.623878 13.633372-37.623878 26.632633v209.573455C487.670888 296.147056 503.946385 306.715561 525.294766 306.715561s37.623878-13.633372 37.623878-26.526948V70.509473c0-16.169813-16.169813-26.632633-37.623878-26.632633z m0 335.444351c-21.13701 0-37.623878 13.633372-37.623878 29.803184v238.848215c0 16.275498 16.275498 29.803184 37.623878 29.803184s37.623878-13.527686 37.623878-29.803184V409.23006c0-16.169813-16.169813-29.803184-37.623878-29.803184z m0 378.986592c-21.13701 0-37.623878 13.633372-37.623878 29.803184v203.760778c0 16.275498 16.275498 29.803184 37.623878 29.803184s37.623878-13.527686 37.623878-29.803184V788.216652c0-16.169813-16.169813-29.803184-37.623878-29.803184zM1025.185055 967.352813L849.113761 45.884856C843.935193 19.252223 821.847018 0.228914 800.498638 3.08241c-24.096192 5.178567-37.623878 29.803184-32.445311 56.435817L943.913251 980.986184c5.178567 26.526948 27.161058 45.338887 48.615124 42.274021s37.623878-29.274759 32.44531-56.435817z m0 0" fill="#38BFD4" p-id="1455"></path></svg>